<svg fill="none" xmlns="http://www.w3.org/2000/svg" viewBox="0 0 400 400">
  <path fill-rule="evenodd" clip-rule="evenodd" d="m101.008 42 89.982 82.905V42.1913h17.516v83.0847L298.891 42v94.524H336v136.342h-36.995v84.169l-90.499-79.51v80.423H190.99v-79.112L101.11 358v-85.134H64V136.524h37.008V42Zm76.777 111.826H81.5159v101.738h19.5721v-32.092l76.697-69.646Zm-59.16 77.323v88.243l72.365-63.737v-90.234l-72.365 65.728Zm90.385 23.663v-89.476l72.386 65.732v41.798h.093v45.625l-72.479-63.679Zm89.995.752h19.479V153.826h-95.552l76.073 68.925v32.813Zm-17.63-119.04V81.7983l-59.398 54.7257h59.398Zm-103.454 0h-59.397V81.7983l59.397 54.7257Z" fill="currentColor"/>
</svg>