<svg id="Layer_2" data-name="Layer 2" xmlns="http://www.w3.org/2000/svg" viewBox="0 0 200.18 69.76">
  <defs/>
  <g id="Layer_1-2" data-name="Layer 1">
    <path fill="currentColor" class="cls-1" d="M114.26.13c-13.19 0-23.88 10.68-23.88 23.88s10.68 23.9 23.88 23.9 23.88-10.68 23.88-23.88C138.12 10.84 127.43.15 114.26.13Zm0 38.81c-8.24 0-14.93-6.69-14.93-14.93s6.69-14.93 14.93-14.93 14.93 6.69 14.93 14.93c-.02 8.24-6.71 14.93-14.93 14.93ZM24.11 0C10.92-.11.13 10.47 0 23.66c-.13 13.19 10.47 23.98 23.66 24.11h8.31v-8.94h-7.86c-8.24.11-15-6.5-15.1-14.74-.11-8.24 6.5-15 14.74-15.1h.34c8.22 0 14.95 6.69 14.95 14.93V45.9c0 8.18-6.65 14.83-14.81 14.93-3.91-.04-7.63-1.59-10.39-4.38l-6.33 6.31c4.4 4.42 10.34 6.92 16.57 6.99h.32C37.42 69.56 47.89 59 47.96 45.98V23.29C47.65 10.35 37.05.02 24.11 0ZM191.28 68.74V23.43C190.96 10.47 180.36.15 167.4.13 154.21 0 143.42 10.6 143.29 23.79c-.13 13.19 10.49 23.98 23.68 24.11h8.31v-8.94h-7.86c-8.24.11-15-6.5-15.1-14.74s6.5-15 14.74-15.1h.34c8.22 0 14.95 6.69 14.95 14.93v44.63l8.92.06ZM54.8 47.9h8.92V24.02c0-8.24 6.69-14.93 14.93-14.93 2.72 0 5.25.72 7.46 2l4.48-7.75C87.09 1.32 83.01.15 78.67.15c-13.19 0-23.88 10.68-23.88 23.88v23.88ZM198.01.74c.68.38 1.21.91 1.59 1.59.38.68.57 1.42.57 2.25s-.19 1.57-.59 2.27c-.4.68-.93 1.23-1.61 1.61-.68.4-1.44.59-2.25.59s-1.57-.19-2.25-.59c-.68-.4-1.21-.93-1.59-1.61-.38-.68-.59-1.42-.59-2.25s.19-1.57.59-2.25c.38-.68.93-1.21 1.61-1.61s1.44-.59 2.27-.59c.83 0 1.57.19 2.25.59Zm-.44 7.01c.55-.32.98-.76 1.3-1.32.32-.55.47-1.17.47-1.85s-.15-1.3-.47-1.85-.74-.98-1.27-1.3c-.55-.32-1.17-.47-1.85-.47s-1.3.17-1.85.49c-.55.32-.98.76-1.3 1.32s-.47 1.17-.47 1.85.15 1.3.47 1.85c.32.55.74 1 1.27 1.32.55.32 1.15.49 1.83.49.7-.04 1.32-.21 1.87-.53Zm.27-2.93c-.15.25-.38.45-.68.59l1.06 1.64h-1.32l-.91-1.42h-.87v1.42h-1.32V2.17h2.12c.66 0 1.19.15 1.57.47.38.32.57.74.57 1.27 0 .34-.08.66-.23.91Zm-1.99-.17c.3 0 .53-.06.68-.19.17-.13.25-.32.25-.55s-.08-.42-.25-.57-.4-.19-.68-.19h-.74v1.53h.74v-.02Z"/>
  </g>
</svg>